<svg xmlns="http://www.w3.org/2000/svg" viewBox="0 0 32 32" fill="none">
  <defs>
    <linearGradient id="border" x1="0" y1="0" x2="32" y2="32" gradientUnits="userSpaceOnUse">
      <stop stop-color="#22d3ee"/><stop offset="0.5" stop-color="#a78bfa"/><stop offset="1" stop-color="#f472b6"/>
    </linearGradient>
    <linearGradient id="ink" x1="4.48" y1="4.48" x2="27.52" y2="27.52" gradientUnits="userSpaceOnUse">
      <stop stop-color="#ffffff"/><stop offset="1" stop-color="#e2e8f0"/>
    </linearGradient>
  </defs>
  <rect width="32" height="32" rx="7.04" fill="#07070b"/>
  <rect x="1" y="1" width="30" height="30" rx="6.04" fill="none" stroke="url(#border)" stroke-width="1.5"/>
  <g transform="translate(4.45 19.89) scale(0.9886)"><path d="M10.45 2.89Q9.72 2.89 8.93 2.68Q8.15 2.48 7.46 2.21Q6.78 1.94 6.27 1.76Q5.33 1.43 4.52 1.11Q3.71 0.79 3.38 0.72Q1.67 0.28 0.97 0.28Q0.84 0.37 0.74 0.43Q0.63 0.49 0.51 0.51Q0.46 0.53 0.35 0.53Q0.04 0.53 0.04 0.32Q0.04 0.19 0.23 0.07Q0.37 0 0.55-0.01Q0.74-0.02 0.93-0.04Q1.34-0.39 1.70-0.93Q2.06-1.48 2.22-1.76Q2.36-2.01 2.49-2.24Q2.62-2.48 2.76-2.71Q2.48-2.64 2.18-2.58Q1.88-2.52 1.60-2.52Q1.09-2.52 0.68-2.73Q0.26-2.94 0.26-3.50Q0.26-3.87 0.59-4.19Q0.92-4.51 1.27-4.51Q1.48-4.51 1.48-4.33Q1.48-4.22 1.32-4.22Q1.13-4.22 0.97-4Q0.81-3.77 0.81-3.52Q0.81-3.34 0.92-3.18Q1.04-3.01 1.32-2.97Q1.58-2.92 1.88-2.92Q2.39-2.92 2.92-3.06Q3.17-3.56 3.39-4.04Q3.61-4.52 3.82-5Q4.26-5.97 4.72-6.88Q5.17-7.80 5.61-8.52Q6.05-9.24 6.41-9.59Q7.08-10.23 7.75-10.49Q8.43-10.75 8.98-10.75Q9.08-10.75 9.19-10.74Q9.29-10.74 9.38-10.72Q10.03-10.61 10.30-10.27Q10.56-9.93 10.56-9.45Q10.56-9.20 10.51-8.94Q10.28-7.83 9.58-6.86Q8.89-5.90 7.90-5.11Q6.92-4.33 5.80-3.78Q4.68-3.24 3.63-2.99Q3.40-2.60 3.14-2.23Q2.89-1.85 2.59-1.48Q2.41-1.21 2.08-0.80Q1.74-0.39 1.39-0.04Q1.64-0.02 1.93 0.01Q2.22 0.04 2.55 0.09Q4.01 0.32 5.48 0.77Q6.95 1.21 8.40 1.58Q8.80 1.69 9.55 1.85Q10.30 2.01 10.95 2.01Q11.58 2.01 11.92 1.78Q12.18 1.62 12.18 1.34Q12.18 1.13 11.99 0.99Q11.88 0.90 11.88 0.84Q11.88 0.67 12.09 0.79Q12.32 0.95 12.42 1.16Q12.51 1.37 12.51 1.60Q12.51 1.87 12.42 2.09Q12.32 2.31 12.18 2.39Q11.46 2.89 10.45 2.89M3.89-3.40Q5.84-4.24 7.32-5.46Q8.80-6.67 9.66-8.66Q9.94-9.28 9.94-9.73Q9.94-10.10 9.72-10.31Q9.59-10.47 9.31-10.47Q8.73-10.47 8.11-10.07Q7.59-9.68 7.12-9.05Q6.65-8.41 6.25-7.71Q5.84-7 5.54-6.38Q5.23-5.76 5.02-5.39Q4.88-5.10 4.58-4.56Q4.29-4.01 3.89-3.40M9.75 1.46Q9.17 1.46 8.64 1.27Q8.11 1.07 7.78 0.65Q7.44 0.23 7.44-0.42Q7.44-0.58 7.52-0.71Q7.60-0.84 7.67-0.84Q7.81-0.84 7.81-0.42Q7.81 0.18 8.32 0.51Q8.73 0.77 9.42 0.77Q10.10 0.77 10.84 0.53Q11.58 0.28 12.25-0.18Q13.04-0.70 14.02-1.70Q15-2.69 16.05-3.87Q15.21-3.96 14.37-4.07Q13.53-4.17 12.69-4.17Q12.13-4.17 11.56-4.06Q11-3.94 10.54-3.63Q10.08-3.31 9.86-2.69Q9.84-2.62 9.81-2.53Q9.79-2.45 9.79-2.36Q9.79-2.18 9.87-2.04Q9.91-1.94 9.91-1.92Q9.91-1.76 9.77-1.76Q9.64-1.76 9.57-1.88Q9.40-2.20 9.40-2.69Q9.40-3.63 9.74-4.12Q10.08-4.61 10.67-4.79Q11.25-4.96 11.92-4.96Q12.21-4.96 12.54-4.94Q12.87-4.91 13.18-4.88Q13.96-4.80 14.78-4.64Q15.61-4.47 16.44-4.29Q17.35-5.37 18.24-6.46Q19.13-7.55 19.91-8.53Q20.68-9.50 21.23-10.21Q21.24-10.26 21.30-10.28Q21.33-10.31 21.35-10.31Q21.54-10.42 21.84-10.50Q22.14-10.58 22.25-10.58Q22.42-10.58 22.42-10.38Q22.42-10.33 22.33-10.19Q21.45-8.69 20.83-7.13Q20.20-5.56 19.73-3.91L19.69-3.78Q19.80-3.78 19.91-3.78Q20.03-3.77 20.12-3.77Q20.87-3.71 21.40-3.92Q21.79-4.07 21.93-4.33Q21.98-4.40 22.02-4.40Q22.11-4.40 22.14-4.30Q22.18-4.21 22.12-4.12Q21.93-3.78 21.44-3.63Q21.16-3.50 20.79-3.47Q20.43-3.43 20.05-3.45L19.94-3.45L19.73-3.47L19.62-3.47Q19.36-2.50 19.25-1.46Q19.24-1.37 19.24-1.29Q19.24-1.21 19.24-1.13Q19.24-0.12 19.78-0.12Q20.13-0.12 20.62-0.44Q21.10-0.76 21.60-1.21Q22.11-1.67 22.51-2.12Q22.92-2.57 23.11-2.83Q23.14-2.87 23.21-2.87Q23.39-2.87 23.32-2.68Q23.28-2.62 23.02-2.26Q22.76-1.90 22.30-1.40Q21.84-0.90 21.23-0.40Q20.73-0.02 20.25 0.10Q19.76 0.21 19.52 0.21Q19.03 0.21 18.74-0.24Q18.44-0.69 18.44-1.39Q18.44-1.90 18.55-2.45Q18.66-2.99 18.80-3.54Q18.29-3.59 17.76-3.65Q17.23-3.71 16.70-3.78Q15.65-2.50 14.60-1.38Q13.55-0.26 12.64 0.42Q11.95 0.92 11.22 1.19Q10.49 1.46 9.75 1.46M18.87-3.87Q19.18-5.10 19.62-6.34Q20.05-7.59 20.47-8.61L20.56-8.82Q19.80-7.76 18.89-6.56Q17.99-5.37 17.05-4.19Q17.51-4.10 17.97-4.02Q18.43-3.94 18.87-3.87" fill="url(#ink)"/></g>
</svg>