<svg xmlns="http://www.w3.org/2000/svg" viewBox="0 0 512 512" fill="none">
  <defs>
    <linearGradient id="border" x1="0" y1="0" x2="512" y2="512" gradientUnits="userSpaceOnUse">
      <stop stop-color="#22d3ee"/><stop offset="0.5" stop-color="#a78bfa"/><stop offset="1" stop-color="#f472b6"/>
    </linearGradient>
    <linearGradient id="ink" x1="71.68" y1="71.68" x2="440.32" y2="440.32" gradientUnits="userSpaceOnUse">
      <stop stop-color="#ffffff"/><stop offset="1" stop-color="#e2e8f0"/>
    </linearGradient>
  </defs>
  <rect width="512" height="512" rx="112.64" fill="#07070b"/>
  <rect x="1" y="1" width="510" height="510" rx="111.64" fill="none" stroke="url(#border)" stroke-width="2"/>
  <g transform="translate(71.12 318.22) scale(0.9886)"><path d="M167.27 46.18Q155.44 46.18 142.91 42.94Q130.38 39.71 119.40 35.34Q108.42 30.98 100.25 28.16Q85.32 22.81 72.37 17.74Q59.42 12.67 54.07 11.55Q26.75 4.51 15.49 4.51Q13.52 5.91 11.83 6.90Q10.14 7.88 8.17 8.17Q7.32 8.45 5.63 8.45Q0.56 8.45 0.56 5.07Q0.56 3.10 3.66 1.13Q5.91 0 8.87-0.14Q11.83-0.28 14.92-0.56Q21.40-6.20 27.17-14.92Q32.95-23.65 35.48-28.16Q37.73-32.10 39.85-35.90Q41.96-39.71 44.21-43.37Q39.71-42.24 34.92-41.25Q30.13-40.27 25.63-40.27Q17.46-40.27 10.84-43.65Q4.22-47.03 4.22-56.04Q4.22-61.95 9.43-67.02Q14.64-72.09 20.28-72.09Q23.65-72.09 23.65-69.27Q23.65-67.58 21.12-67.58Q18.02-67.58 15.49-63.92Q12.95-60.26 12.95-56.32Q12.95-53.50 14.78-50.83Q16.61-48.15 21.12-47.59Q25.34-46.75 30.13-46.75Q38.30-46.75 46.75-49Q50.69-56.88 54.21-64.63Q57.73-72.37 61.11-79.97Q68.15-95.46 75.47-110.11Q82.79-124.75 89.83-136.29Q96.87-147.84 102.50-153.47Q113.20-163.61 124.04-167.83Q134.89-172.06 143.62-172.06Q145.31-172.06 147-171.92Q148.68-171.78 150.09-171.49Q160.51-169.80 164.74-164.31Q168.96-158.82 168.96-151.22Q168.96-147.28 168.12-143.05Q164.45-125.31 153.33-109.82Q142.21-94.34 126.44-81.80Q110.67-69.27 92.79-60.54Q74.91-51.81 58.01-47.87Q54.35-41.68 50.27-35.62Q46.18-29.57 41.40-23.65Q38.58-19.43 33.23-12.81Q27.88-6.20 22.25-0.56Q26.19-0.28 30.84 0.14Q35.48 0.56 40.83 1.41Q64.20 5.07 87.72 12.25Q111.23 19.43 134.32 25.34Q140.80 27.03 152.77 29.57Q164.74 32.10 175.16 32.10Q185.29 32.10 190.64 28.44Q194.87 25.91 194.87 21.40Q194.87 18.02 191.77 15.77Q190.08 14.36 190.08 13.52Q190.08 10.70 193.46 12.67Q197.12 15.21 198.67 18.59Q200.22 21.96 200.22 25.63Q200.22 29.85 198.67 33.37Q197.12 36.89 194.87 38.30Q183.32 46.18 167.27 46.18M62.23-54.35Q93.49-67.87 117.15-87.30Q140.80-106.73 154.60-138.55Q159.10-148.40 159.10-155.72Q159.10-161.64 155.44-165.02Q153.47-167.55 148.97-167.55Q139.67-167.55 129.82-161.08Q121.37-154.88 113.91-144.74Q106.44-134.60 99.97-123.34Q93.49-112.08 88.56-102.08Q83.64-92.08 80.26-86.17Q78-81.66 73.36-72.93Q68.71-64.20 62.23-54.35M156.01 23.37Q146.71 23.37 138.27 20.28Q129.82 17.18 124.47 10.42Q119.12 3.66 119.12-6.76Q119.12-9.29 120.38-11.40Q121.65-13.52 122.78-13.52Q125.03-13.52 125.03-6.76Q125.03 2.82 133.20 8.17Q139.67 12.39 150.66 12.39Q161.64 12.39 173.47 8.45Q185.29 4.51 195.99-2.82Q208.67-11.26 224.29-27.17Q239.92-43.08 256.82-61.95Q243.30-63.36 229.93-65.05Q216.55-66.74 203.03-66.74Q194.02-66.74 185.01-64.91Q176-63.08 168.68-58.01Q161.36-52.94 157.70-43.08Q157.41-41.96 156.99-40.55Q156.57-39.14 156.57-37.73Q156.57-34.92 157.98-32.67Q158.54-30.98 158.54-30.69Q158.54-28.16 156.29-28.16Q154.32-28.16 153.19-30.13Q150.37-35.20 150.37-43.08Q150.37-58.01 155.87-65.89Q161.36-73.78 170.65-76.60Q179.94-79.41 190.64-79.41Q195.43-79.41 200.64-78.99Q205.85-78.57 210.92-78Q223.31-76.88 236.54-74.20Q249.78-71.53 263.01-68.71Q277.66-85.89 291.88-103.35Q306.10-120.81 318.49-136.44Q330.88-152.06 339.61-163.33Q339.89-164.17 340.74-164.45Q341.30-165.02 341.58-165.02Q344.68-166.71 349.47-167.97Q354.25-169.24 355.94-169.24Q358.76-169.24 358.76-166.14Q358.76-165.30 357.35-163.05Q343.27-139.11 333.27-114.05Q323.28-88.99 315.67-62.52L315.11-60.54Q316.80-60.54 318.63-60.40Q320.46-60.26 321.87-60.26Q333.98-59.42 342.43-62.80Q348.62-65.05 350.87-69.27Q351.72-70.40 352.28-70.40Q353.69-70.40 354.25-68.85Q354.82-67.30 353.97-65.89Q350.87-60.54 342.99-58.01Q338.48-56.04 332.71-55.48Q326.94-54.91 320.74-55.19L319.05-55.19L315.67-55.48L313.98-55.48Q309.76-39.99 308.07-23.37Q307.79-21.96 307.79-20.70Q307.79-19.43 307.79-18.02Q307.79-1.97 316.52-1.97Q322.15-1.97 329.89-7.04Q337.64-12.11 345.66-19.43Q353.69-26.75 360.17-33.93Q366.64-41.11 369.74-45.34Q370.30-45.90 371.43-45.90Q374.25-45.90 373.12-42.80Q372.56-41.96 368.33-36.19Q364.11-30.41 356.79-22.39Q349.47-14.36 339.61-6.48Q331.72-0.28 323.98 1.55Q316.24 3.38 312.29 3.38Q304.41 3.38 299.76-3.80Q295.12-10.98 295.12-22.25Q295.12-30.41 296.81-39.14Q298.50-47.87 300.75-56.60Q292.58-57.45 284.13-58.43Q275.69-59.42 267.24-60.54Q250.34-39.99 233.59-22.11Q216.83-4.22 202.19 6.76Q191.21 14.64 179.52 19.01Q167.83 23.37 156.01 23.37M301.88-61.95Q306.94-81.66 313.84-101.52Q320.74-121.37 327.50-137.70L328.91-141.08Q316.80-124.19 302.30-105.04Q287.80-85.89 272.87-67.02Q280.19-65.61 287.51-64.35Q294.84-63.08 301.88-61.95" fill="url(#ink)"/></g>
</svg>