<svg xmlns="http://www.w3.org/2000/svg" width="1200" height="630" viewBox="0 0 1200 630" fill="none">
  <defs>
    <linearGradient id="border" x1="0" y1="0" x2="1200" y2="630" gradientUnits="userSpaceOnUse">
      <stop stop-color="#22d3ee" stop-opacity="0.65"/><stop offset="0.5" stop-color="#a78bfa" stop-opacity="0.45"/><stop offset="1" stop-color="#f472b6" stop-opacity="0.35"/>
    </linearGradient>
    <linearGradient id="title" x1="0" y1="0" x2="1" y2="0"><stop stop-color="#ffffff"/><stop offset="1" stop-color="#e2e8f0"/></linearGradient>
    <linearGradient id="accent" x1="0" y1="0" x2="1" y2="0"><stop stop-color="#22d3ee"/><stop offset="0.5" stop-color="#a78bfa"/><stop offset="1" stop-color="#f472b6"/></linearGradient>
    <radialGradient id="glow-cyan" cx="0" cy="0" r="1" gradientUnits="userSpaceOnUse" gradientTransform="translate(180 120) rotate(90) scale(320)"><stop stop-color="#22d3ee" stop-opacity="0.16"/><stop offset="1" stop-color="#22d3ee" stop-opacity="0"/></radialGradient>
    <radialGradient id="glow-violet" cx="0" cy="0" r="1" gradientUnits="userSpaceOnUse" gradientTransform="translate(980 520) rotate(90) scale(360)"><stop stop-color="#a78bfa" stop-opacity="0.14"/><stop offset="1" stop-color="#a78bfa" stop-opacity="0"/></radialGradient>
    <pattern id="grid" width="40" height="40" patternUnits="userSpaceOnUse"><circle cx="1" cy="1" r="1" fill="#ffffff" fill-opacity="0.04"/></pattern>
  </defs>
  <rect width="1200" height="630" fill="#07070b"/>
  <rect width="1200" height="630" fill="url(#grid)"/>
  <rect width="1200" height="630" fill="url(#glow-cyan)"/>
  <rect width="1200" height="630" fill="url(#glow-violet)"/>
  <rect x="48" y="48" width="1104" height="534" rx="28" fill="url(#border)"/>
  <rect x="50" y="50" width="1100" height="530" rx="26" fill="#0c0c14"/>
  <rect x="96" y="200" width="72" height="6" rx="3" fill="url(#accent)"/>
  <text x="96" y="290" fill="url(#title)" font-family="system-ui, -apple-system, sans-serif" font-size="78" font-weight="800" letter-spacing="-2">Likhit Ajeesh</text>
  <text x="96" y="360" fill="#22d3ee" font-family="system-ui, -apple-system, sans-serif" font-size="34" font-weight="600">Software Engineer</text>
  <text x="96" y="420" fill="#94a3b8" font-family="system-ui, -apple-system, sans-serif" font-size="28">Backend • Cloud • AI</text>
  <text x="96" y="520" fill="#64748b" font-family="ui-monospace, monospace" font-size="22">likhit-ajeesh.com</text>
  <g transform="translate(920 130)">
  <defs>
    <linearGradient id="logo-border" x1="0" y1="0" x2="160" y2="160" gradientUnits="userSpaceOnUse">
      <stop stop-color="#22d3ee"/><stop offset="0.5" stop-color="#a78bfa"/><stop offset="1" stop-color="#f472b6"/>
    </linearGradient>
    <linearGradient id="logo-ink" x1="22.400000000000002" y1="22.400000000000002" x2="137.6" y2="137.6" gradientUnits="userSpaceOnUse">
      <stop stop-color="#ffffff"/><stop offset="1" stop-color="#e2e8f0"/>
    </linearGradient>
  </defs>
  <rect width="160" height="160" rx="35.2" fill="#07070b"/>
  <rect x="1" y="1" width="158" height="158" rx="34.2" fill="none" stroke="url(#logo-border)" stroke-width="2"/>
  <g transform="translate(22.23 99.44) scale(0.9886)"><path d="M52.27 14.43Q48.58 14.43 44.66 13.42Q40.74 12.41 37.31 11.04Q33.88 9.68 31.33 8.80Q26.66 7.13 22.62 5.54Q18.57 3.96 16.90 3.61Q8.36 1.41 4.84 1.41Q4.22 1.85 3.70 2.16Q3.17 2.46 2.55 2.55Q2.29 2.64 1.76 2.64Q0.18 2.64 0.18 1.58Q0.18 0.97 1.14 0.35Q1.85 0 2.77-0.04Q3.70-0.09 4.66-0.18Q6.69-1.94 8.49-4.66Q10.30-7.39 11.09-8.80Q11.79-10.03 12.45-11.22Q13.11-12.41 13.82-13.55Q12.41-13.20 10.91-12.89Q9.42-12.58 8.01-12.58Q5.46-12.58 3.39-13.64Q1.32-14.70 1.32-17.51Q1.32-19.36 2.95-20.94Q4.58-22.53 6.34-22.53Q7.39-22.53 7.39-21.65Q7.39-21.12 6.60-21.12Q5.63-21.12 4.84-19.98Q4.05-18.83 4.05-17.60Q4.05-16.72 4.62-15.88Q5.19-15.05 6.60-14.87Q7.92-14.61 9.42-14.61Q11.97-14.61 14.61-15.31Q15.84-17.78 16.94-20.20Q18.04-22.62 19.10-24.99Q21.30-29.83 23.58-34.41Q25.87-38.98 28.07-42.59Q30.27-46.20 32.03-47.96Q35.38-51.13 38.76-52.45Q42.15-53.77 44.88-53.77Q45.41-53.77 45.94-53.72Q46.46-53.68 46.90-53.59Q50.16-53.06 51.48-51.35Q52.80-49.63 52.80-47.26Q52.80-46.02 52.54-44.70Q51.39-39.16 47.92-34.32Q44.44-29.48 39.51-25.56Q34.58-21.65 29-18.92Q23.41-16.19 18.13-14.96Q16.98-13.02 15.71-11.13Q14.43-9.24 12.94-7.39Q12.06-6.07 10.38-4Q8.71-1.94 6.95-0.18Q8.18-0.09 9.64 0.04Q11.09 0.18 12.76 0.44Q20.06 1.58 27.41 3.83Q34.76 6.07 41.98 7.92Q44 8.45 47.74 9.24Q51.48 10.03 54.74 10.03Q57.90 10.03 59.58 8.89Q60.90 8.10 60.90 6.69Q60.90 5.63 59.93 4.93Q59.40 4.49 59.40 4.22Q59.40 3.34 60.46 3.96Q61.60 4.75 62.08 5.81Q62.57 6.86 62.57 8.01Q62.57 9.33 62.08 10.43Q61.60 11.53 60.90 11.97Q57.29 14.43 52.27 14.43M19.45-16.98Q29.22-21.21 36.61-27.28Q44-33.35 48.31-43.30Q49.72-46.38 49.72-48.66Q49.72-50.51 48.58-51.57Q47.96-52.36 46.55-52.36Q43.65-52.36 40.57-50.34Q37.93-48.40 35.60-45.23Q33.26-42.06 31.24-38.54Q29.22-35.02 27.68-31.90Q26.14-28.78 25.08-26.93Q24.38-25.52 22.92-22.79Q21.47-20.06 19.45-16.98M48.75 7.30Q45.85 7.30 43.21 6.34Q40.57 5.37 38.90 3.26Q37.22 1.14 37.22-2.11Q37.22-2.90 37.62-3.56Q38.02-4.22 38.37-4.22Q39.07-4.22 39.07-2.11Q39.07 0.88 41.62 2.55Q43.65 3.87 47.08 3.87Q50.51 3.87 54.21 2.64Q57.90 1.41 61.25-0.88Q65.21-3.52 70.09-8.49Q74.98-13.46 80.26-19.36Q76.03-19.80 71.85-20.33Q67.67-20.86 63.45-20.86Q60.63-20.86 57.82-20.28Q55-19.71 52.71-18.13Q50.42-16.54 49.28-13.46Q49.19-13.11 49.06-12.67Q48.93-12.23 48.93-11.79Q48.93-10.91 49.37-10.21Q49.54-9.68 49.54-9.59Q49.54-8.80 48.84-8.80Q48.22-8.80 47.87-9.42Q46.99-11 46.99-13.46Q46.99-18.13 48.71-20.59Q50.42-23.06 53.33-23.94Q56.23-24.82 59.58-24.82Q61.07-24.82 62.70-24.68Q64.33-24.55 65.91-24.38Q69.78-24.02 73.92-23.19Q78.06-22.35 82.19-21.47Q86.77-26.84 91.21-32.30Q95.66-37.75 99.53-42.64Q103.40-47.52 106.13-51.04Q106.22-51.30 106.48-51.39Q106.66-51.57 106.74-51.57Q107.71-52.10 109.21-52.49Q110.70-52.89 111.23-52.89Q112.11-52.89 112.11-51.92Q112.11-51.66 111.67-50.95Q107.27-43.47 104.15-35.64Q101.02-27.81 98.65-19.54L98.47-18.92Q99-18.92 99.57-18.88Q100.14-18.83 100.58-18.83Q104.37-18.57 107.01-19.62Q108.94-20.33 109.65-21.65Q109.91-22 110.09-22Q110.53-22 110.70-21.52Q110.88-21.03 110.62-20.59Q109.65-18.92 107.18-18.13Q105.78-17.51 103.97-17.34Q102.17-17.16 100.23-17.25L99.70-17.25L98.65-17.34L98.12-17.34Q96.80-12.50 96.27-7.30Q96.18-6.86 96.18-6.47Q96.18-6.07 96.18-5.63Q96.18-0.62 98.91-0.62Q100.67-0.62 103.09-2.20Q105.51-3.78 108.02-6.07Q110.53-8.36 112.55-10.60Q114.58-12.85 115.54-14.17Q115.72-14.34 116.07-14.34Q116.95-14.34 116.60-13.38Q116.42-13.11 115.10-11.31Q113.78-9.50 111.50-7Q109.21-4.49 106.13-2.02Q103.66-0.09 101.24 0.48Q98.82 1.06 97.59 1.06Q95.13 1.06 93.68-1.19Q92.22-3.43 92.22-6.95Q92.22-9.50 92.75-12.23Q93.28-14.96 93.98-17.69Q91.43-17.95 88.79-18.26Q86.15-18.57 83.51-18.92Q78.23-12.50 73-6.91Q67.76-1.32 63.18 2.11Q59.75 4.58 56.10 5.94Q52.45 7.30 48.75 7.30M94.34-19.36Q95.92-25.52 98.08-31.72Q100.23-37.93 102.34-43.03L102.78-44.09Q99-38.81 94.47-32.82Q89.94-26.84 85.27-20.94Q87.56-20.50 89.85-20.11Q92.14-19.71 94.34-19.36" fill="url(#logo-ink)"/></g>
</g>
</svg>